<svg width="480" height="480" fill="none" xmlns="http://www.w3.org/2000/svg"><path fill-rule="evenodd" clip-rule="evenodd" d="M393.569 238.892c.01.063.024.119.031.182-.021-7.274-4.671-14.624-13.895-20.375a48.79 48.79 0 00-1.989-1.183l-55.464-31.309-17.736-10.007-74.286-41.901v.007L85.997 52.957a44.193 44.193 0 00-2.192-1.158c-.22-.112-.441-.214-.658-.319a42.25 42.25 0 00-2.234-.99 36.578 36.578 0 00-1.566-.602c-.185-.067-.37-.137-.556-.2-2.196-.752-4.325-1.246-6.37-1.494l-.084-.01c-6.454-.771-12.056.906-16.241 4.7l-.003-.004-.067.067c-.336.308-.665.633-.984.966l-.063.066c-.021.021-.035.042-.053.056-.213.231-.42.462-.623.704-.122.144-.241.294-.364.445-.147.185-.301.37-.445.567-.273.36-.539.738-.791 1.123-.032.053-.06.102-.091.15-.245.382-.48.774-.704 1.177-.046.08-.091.168-.137.252-.22.402-.427.819-.63 1.246-.028.049-.052.105-.077.157a27.244 27.244 0 00-1.243 3.2l-.007.02c-.172.536-.33 1.089-.476 1.649-.018.07-.035.133-.05.203-.14.56-.276 1.134-.391 1.719l-.011.056c-.123.623-.231 1.26-.322 1.914-.004.028-.007.063-.01.095-.053.35-.088.717-.127 1.074 0 0-.43 4.432-.427 5.114l.007 2.18.228 202.845.084 77.967.627 45.079.423 6.986c.746 6.976 3.089 12.468 6.678 16.269l.998.963.126.119v-.018c.308.27.627.532.953.781.112.084.22.178.332.259.357.262.729.504 1.1.738.119.077.241.158.364.231h.003c.39.235.788.445 1.198.651.109.056.217.112.33.168.433.203.878.389 1.33.564.09.035.175.066.263.101.483.179.976.333 1.477.469l.179.053c.532.143 1.078.262 1.632.36.028.004.052.007.08.014 5.946 1.037 12.992-.413 20.527-4.732l140.448-80.28h.29l77.343-44.208 16.192-9.258.035-.021 18.416-10.536 38.312-21.911c5.214-2.979 9.119-6.43 11.724-10.109 2.476-3.5 3.761-7.21 3.877-10.931.007-.196.024-.399.024-.595-.007.053-.017.105-.024.158 0-.123-.004-.245-.007-.364z" fill="#EFF7CF"/><mask id="a" maskUnits="userSpaceOnUse" x="48" y="48" width="346" height="384"><path fill-rule="evenodd" clip-rule="evenodd" d="M393.569 238.892c.01.063.024.119.031.182-.021-7.274-4.671-14.624-13.895-20.375a48.79 48.79 0 00-1.989-1.183l-55.464-31.309-17.736-10.007-74.286-41.901v.007L85.997 52.957a44.193 44.193 0 00-2.192-1.158c-.22-.112-.441-.214-.658-.319a42.25 42.25 0 00-2.234-.99 36.578 36.578 0 00-1.566-.602c-.185-.067-.37-.137-.556-.2-2.196-.752-4.325-1.246-6.37-1.494l-.084-.01c-6.454-.771-12.056.906-16.241 4.7l-.003-.004-.067.067c-.336.308-.665.633-.984.966l-.063.066c-.021.021-.035.042-.053.056-.213.231-.42.462-.623.704-.122.144-.241.294-.364.445-.147.185-.301.37-.445.567-.273.36-.539.738-.791 1.123-.032.053-.06.102-.091.15-.245.382-.48.774-.704 1.177-.046.08-.091.168-.137.252-.22.402-.427.819-.63 1.246-.028.049-.052.105-.077.157a27.244 27.244 0 00-1.243 3.2l-.007.02c-.172.536-.33 1.089-.476 1.649-.018.07-.035.133-.05.203-.14.56-.276 1.134-.391 1.719l-.011.056c-.123.623-.231 1.26-.322 1.914-.004.028-.007.063-.01.095-.053.35-.088.717-.127 1.074 0 0-.43 4.432-.427 5.114l.007 2.18.228 202.845.084 77.967.627 45.079.423 6.986c.746 6.976 3.089 12.468 6.678 16.269l.998.963.126.119v-.018c.308.27.627.532.953.781.112.084.22.178.332.259.357.262.729.504 1.1.738.119.077.241.158.364.231h.003c.39.235.788.445 1.198.651.109.056.217.112.33.168.433.203.878.389 1.33.564.09.035.175.066.263.101.483.179.976.333 1.477.469l.179.053c.532.143 1.078.262 1.632.36.028.004.052.007.08.014 5.946 1.037 12.992-.413 20.527-4.732l140.448-80.28h.29l77.343-44.208 16.192-9.258.035-.021 18.416-10.536 38.312-21.911c5.214-2.979 9.119-6.43 11.724-10.109 2.476-3.5 3.761-7.21 3.877-10.931.007-.196.024-.399.024-.595-.007.053-.017.105-.024.158 0-.123-.004-.245-.007-.364z" fill="#EFF7CF"/></mask><g mask="url(#a)"><path d="M88 255.05c0-7.518 6.095-13.613 13.613-13.613h240.774c7.518 0 13.613 6.095 13.613 13.613v56.737H88V255.05z" fill="#EA5426"/><path d="M226.19 149.826l.487 70.22" stroke="#073042" stroke-width="17.899"/><path d="M141.6 221.549c0-7.518 6.094-13.612 13.612-13.612h133.575c7.518 0 13.613 6.094 13.613 13.612v19.888H141.6v-19.888z" fill="#F86734"/><circle cx="227.025" cy="109.111" r="44.749" fill="#F6DA00"/></g><path fill-rule="evenodd" clip-rule="evenodd" d="M217.939 219.745l-.487-70.22 17.899-.124.487 70.22-17.899.124z" fill="#073042"/><path d="M141.811 221.187c0-7.518 6.094-13.613 13.612-13.613h133.575c7.518 0 13.613 6.095 13.613 13.613v19.887h-160.8v-19.887z" fill="#F86734"/><circle cx="227.236" cy="108.749" r="44.749" fill="#F6DA00"/><path d="M376.456 72.092h-24.091V48h-17.273v24.092H311v17.273h24.092v24.091h17.273V89.365h24.091V72.092z" fill="#EA5426"/><path d="M399.051 123.837c5.691 0 10.304-4.613 10.304-10.304s-4.613-10.304-10.304-10.304-10.304 4.613-10.304 10.304 4.613 10.304 10.304 10.304zM399.051 168.494c5.691 0 10.304-4.613 10.304-10.304s-4.613-10.305-10.304-10.305-10.304 4.614-10.304 10.305 4.613 10.304 10.304 10.304zM421.623 146.409c5.691 0 10.304-4.614 10.304-10.305 0-5.69-4.613-10.304-10.304-10.304s-10.304 4.614-10.304 10.304c0 5.691 4.613 10.305 10.304 10.305zM376.479 146.409c5.691 0 10.304-4.614 10.304-10.305 0-5.69-4.613-10.304-10.304-10.304s-10.304 4.614-10.304 10.304c0 5.691 4.613 10.305 10.304 10.305z" fill="#4285F4"/><path d="M232.133 402.266a5.133 5.133 0 100-10.266 5.133 5.133 0 000 10.266zM414.133 317.266a5.133 5.133 0 100-10.266 5.133 5.133 0 000 10.266zM163.133 61.266a5.133 5.133 0 100-10.266 5.133 5.133 0 000 10.266z" fill="#F6DA00"/><rect x="322" y="364" width="40" height="40" rx="12" stroke="#D7EFFE" stroke-width="8"/></svg>